HIERARCHY
ROOT Hips
{
    OFFSET   0.000000   0.000000   0.000000
    CHANNELS 6 Xposition Yposition Zposition Zrotation Xrotation Yrotation
    JOINT Chest
    {
        OFFSET   0.000000   8.007230   0.000000
        CHANNELS 3 Zrotation Xrotation Yrotation
        JOINT Chest2
        {
            OFFSET   0.000000  22.077100   0.000000
            CHANNELS 3 Zrotation Xrotation Yrotation
            JOINT Neck
            {
                OFFSET   0.000000  23.254800   0.000000
                CHANNELS 3 Zrotation Xrotation Yrotation
                JOINT Head
                {
                    OFFSET   0.000010  14.370000   1.956600
                    CHANNELS 3 Zrotation Xrotation Yrotation
                    End Site
                    {
                        OFFSET   0.000000  19.566000   0.000000
                    }
                }
            }
            JOINT LeftCollar
            {
                OFFSET   3.911900  19.017000  -0.467062
                CHANNELS 3 Zrotation Xrotation Yrotation
                JOINT LeftShoulder
                {
                    OFFSET  10.383700   0.000000   0.000000
                    CHANNELS 3 Zrotation Xrotation Yrotation
                    JOINT LeftElbow
                    {
                        OFFSET  26.662100   0.001193   0.000835
                        CHANNELS 3 Zrotation Xrotation Yrotation
                        JOINT LeftWrist
                        {
                            OFFSET  28.869000  -0.000058  -0.000075
                            CHANNELS 3 Zrotation Xrotation Yrotation
                            JOINT LeftFinger0
                            {
                                OFFSET   2.044660  -2.323460   3.252850
                                CHANNELS 3 Zrotation Xrotation Yrotation
                                JOINT LeftFinger01
                                {
                                    OFFSET   3.088130   0.000000   0.000000
                                    CHANNELS 3 Zrotation Xrotation Yrotation
                                    JOINT LeftFinger02
                                    {
                                        OFFSET   2.639450   0.000000   0.000000
                                        CHANNELS 3 Zrotation Xrotation Yrotation
                                        End Site
                                        {
                                            OFFSET   2.582190   0.000000   0.000000
                                        }
                                    }
                                }
                            }
                            JOINT LeftFinger1
                            {
                                OFFSET   8.364480   0.000000   3.252850
                                CHANNELS 3 Zrotation Xrotation Yrotation
                                JOINT LeftFinger11
                                {
                                    OFFSET   4.646920   0.000000   0.000000
                                    CHANNELS 3 Zrotation Xrotation Yrotation
                                    JOINT LeftFinger12
                                    {
                                        OFFSET   2.323460   0.000000   0.000000
                                        CHANNELS 3 Zrotation Xrotation Yrotation
                                        End Site
                                        {
                                            OFFSET   2.273050   0.000000   0.000000
                                        }
                                    }
                                }
                            }
                            JOINT LeftFinger2
                            {
                                OFFSET   8.364490   0.000016   1.078090
                                CHANNELS 3 Zrotation Xrotation Yrotation
                                JOINT LeftFinger21
                                {
                                    OFFSET   5.111620   0.000000   0.000000
                                    CHANNELS 3 Zrotation Xrotation Yrotation
                                    JOINT LeftFinger22
                                    {
                                        OFFSET   2.788150   0.000012   0.000000
                                        CHANNELS 3 Zrotation Xrotation Yrotation
                                        End Site
                                        {
                                            OFFSET   2.727660   0.000000   0.000000
                                        }
                                    }
                                }
                            }
                            JOINT LeftFinger3
                            {
                                OFFSET   7.899780   0.000014  -1.078090
                                CHANNELS 3 Zrotation Xrotation Yrotation
                                JOINT LeftFinger31
                                {
                                    OFFSET   4.646930   0.000000   0.000000
                                    CHANNELS 3 Zrotation Xrotation Yrotation
                                    JOINT LeftFinger32
                                    {
                                        OFFSET   2.323470   0.000000   0.000000
                                        CHANNELS 3 Zrotation Xrotation Yrotation
                                        End Site
                                        {
                                            OFFSET   2.273050   0.000000   0.000000
                                        }
                                    }
                                }
                            }
                            JOINT LeftFinger4
                            {
                                OFFSET   7.435090   0.000000  -3.252850
                                CHANNELS 3 Zrotation Xrotation Yrotation
                                JOINT LeftFinger41
                                {
                                    OFFSET   3.717550   0.000000   0.000000
                                    CHANNELS 3 Zrotation Xrotation Yrotation
                                    JOINT LeftFinger42
                                    {
                                        OFFSET   1.858770   0.000000   0.000000
                                        CHANNELS 3 Zrotation Xrotation Yrotation
                                        End Site
                                        {
                                            OFFSET   1.818440   0.000000   0.000000
                                        }
                                    }
                                }
                            }
                        }
                    }
                }
            }
            JOINT RightCollar
            {
                OFFSET  -3.911900  19.017000  -0.467063
                CHANNELS 3 Zrotation Xrotation Yrotation
                JOINT RightShoulder
                {
                    OFFSET -10.383700   0.000023   0.000000
                    CHANNELS 3 Zrotation Xrotation Yrotation
                    JOINT RightElbow
                    {
                        OFFSET -26.662100   0.001246   0.001011
                        CHANNELS 3 Zrotation Xrotation Yrotation
                        JOINT RightWrist
                        {
                            OFFSET -28.869000  -0.000026  -0.000078
                            CHANNELS 3 Zrotation Xrotation Yrotation
                            JOINT RightFinger0
                            {
                                OFFSET  -2.044660  -2.323490   3.252850
                                CHANNELS 3 Zrotation Xrotation Yrotation
                                JOINT RightFinger01
                                {
                                    OFFSET  -3.088130   0.000000   0.000000
                                    CHANNELS 3 Zrotation Xrotation Yrotation
                                    JOINT RightFinger02
                                    {
                                        OFFSET  -2.639460   0.000000   0.000000
                                        CHANNELS 3 Zrotation Xrotation Yrotation
                                        End Site
                                        {
                                            OFFSET  -2.582190   0.000000   0.000000
                                        }
                                    }
                                }
                            }
                            JOINT RightFinger1
                            {
                                OFFSET  -8.364480   0.000000   3.252850
                                CHANNELS 3 Zrotation Xrotation Yrotation
                                JOINT RightFinger11
                                {
                                    OFFSET  -4.646920   0.000000   0.000000
                                    CHANNELS 3 Zrotation Xrotation Yrotation
                                    JOINT RightFinger12
                                    {
                                        OFFSET  -2.323470   0.000000   0.000000
                                        CHANNELS 3 Zrotation Xrotation Yrotation
                                        End Site
                                        {
                                            OFFSET  -2.273050   0.000000   0.000000
                                        }
                                    }
                                }
                            }
                            JOINT RightFinger2
                            {
                                OFFSET  -8.364480   0.000000   1.078090
                                CHANNELS 3 Zrotation Xrotation Yrotation
                                JOINT RightFinger21
                                {
                                    OFFSET  -5.111620   0.000000   0.000000
                                    CHANNELS 3 Zrotation Xrotation Yrotation
                                    JOINT RightFinger22
                                    {
                                        OFFSET  -2.788160   0.000000   0.000000
                                        CHANNELS 3 Zrotation Xrotation Yrotation
                                        End Site
                                        {
                                            OFFSET  -2.727660   0.000000   0.000000
                                        }
                                    }
                                }
                            }
                            JOINT RightFinger3
                            {
                                OFFSET  -7.899780   0.000000  -1.078090
                                CHANNELS 3 Zrotation Xrotation Yrotation
                                JOINT RightFinger31
                                {
                                    OFFSET  -4.646930   0.000000   0.000000
                                    CHANNELS 3 Zrotation Xrotation Yrotation
                                    JOINT RightFinger32
                                    {
                                        OFFSET  -2.323470   0.000000   0.000000
                                        CHANNELS 3 Zrotation Xrotation Yrotation
                                        End Site
                                        {
                                            OFFSET  -2.273050   0.000000   0.000000
                                        }
                                    }
                                }
                            }
                            JOINT RightFinger4
                            {
                                OFFSET  -7.435090   0.000000  -3.252850
                                CHANNELS 3 Zrotation Xrotation Yrotation
                                JOINT RightFinger41
                                {
                                    OFFSET  -3.717550   0.000000   0.000000
                                    CHANNELS 3 Zrotation Xrotation Yrotation
                                    JOINT RightFinger42
                                    {
                                        OFFSET  -1.858760   0.000000   0.000000
                                        CHANNELS 3 Zrotation Xrotation Yrotation
                                        End Site
                                        {
                                            OFFSET  -1.818440   0.000000   0.000000
                                        }
                                    }
                                }
                            }
                        }
                    }
                }
            }
        }
    }
    JOINT LeftHip
    {
        OFFSET   9.783010   0.000000   0.000000
        CHANNELS 3 Zrotation Xrotation Yrotation
        JOINT LeftKnee
        {
            OFFSET   0.000073 -41.789100   0.001749
            CHANNELS 3 Zrotation Xrotation Yrotation
            JOINT LeftAnkle
            {
                OFFSET   0.000111 -41.133200  -0.000179
                CHANNELS 3 Zrotation Xrotation Yrotation
                JOINT LeftToe
                {
                    OFFSET   0.000000  -6.358960  14.674500
                    CHANNELS 3 Zrotation Xrotation Yrotation
                    End Site
                    {
                        OFFSET   0.000000   0.000000   3.913200
                    }
                }
            }
        }
    }
    JOINT RightHip
    {
        OFFSET  -9.783010   0.000000   0.000000
        CHANNELS 3 Zrotation Xrotation Yrotation
        JOINT RightKnee
        {
            OFFSET   0.000424 -41.789200   0.005205
            CHANNELS 3 Zrotation Xrotation Yrotation
            JOINT RightAnkle
            {
                OFFSET   0.000000 -41.133200  -0.000155
                CHANNELS 3 Zrotation Xrotation Yrotation
                JOINT RightToe
                {
                    OFFSET   0.000000  -6.358960  14.674500
                    CHANNELS 3 Zrotation Xrotation Yrotation
                    End Site
                    {
                        OFFSET   0.000000   0.000000   3.913200
                    }
                }
            }
        }
    }
}
MOTION
Frames: 6
Frame Time:   0.016667
 -0.901368  90.002800   3.156620  -0.841446  -9.163890  -3.210970  -1.145360   5.790860   0.338380  -2.344080  11.573700   0.800654  -1.927510   0.233731   0.007634  -3.179380   0.472471  12.803400  -9.468050  -4.820980   0.987167 -53.009500  34.732800 -46.912000  11.988000 -12.267900 -89.813200  35.744200   6.428770 -21.731600  81.000100  51.115900 -111.844000 -18.515100  -0.002902   0.001234  -4.257550  -0.002590  -0.001504 -88.996000   5.001180  -0.089502 -79.527500   0.013475   0.000872 -59.645600   0.004388   0.003092 -89.003900  -0.000098   0.003681 -97.757500   0.011870   0.003611 -73.318100  -0.000496   0.011757 -88.994400  -4.987860   0.084406 -89.894400   0.012058   0.002763 -67.420700   0.001997   0.010854 -88.981600  -9.999230   0.177554 -110.000000  -0.006824   0.002800 -80.000000   0.001158  -0.000884   6.452600  -2.875670  11.434900  34.114300   6.245050  64.794600 -15.310900 -15.797200  86.040200  47.016800   8.206970  -4.229880 -48.729200  48.302900  95.122300 -16.357600   0.003627  -0.013077 -13.178800   0.000393  -0.003437  40.751600  11.432200  12.989700  34.411200   0.001662  -0.001064  24.514700  -0.000139  -0.000553  24.142300   5.552020  12.209600  24.738000   0.000462  -0.000031  16.475500  -0.001405  -0.009939  24.855700   4.910970  10.478500  25.311000  -0.004300  -0.002508  16.857100  -0.003032   0.000525  34.702400   0.299006   0.446072  52.056100  -0.001789   0.001400  34.669400  -0.000884   0.002222   0.991844  10.756800   2.782610   0.463452   2.339650  13.403800  -6.117320  -5.522410   4.148240  -0.000000   0.000000   0.000000   2.013810  10.710500  -9.458360   0.461886   1.574710  -8.387130 -11.311100  -0.067999   0.738775  -0.000000   0.000000   0.000000
 -0.897769  90.003200   3.177540  -0.846376  -9.127610  -3.200300  -1.133620   5.772730   0.343494  -2.319990  11.537400   0.808599  -1.939320   0.139269   0.004339  -3.186070   0.281644  12.846600  -9.457200  -4.824340   0.979084 -52.814800  34.755800 -47.118200  11.872800 -12.542700 -89.938700  35.681100   6.714530 -21.913000  80.664300  51.119400 -111.784000 -18.508900  -0.002899   0.001201  -4.254460  -0.002589  -0.001514 -88.996000   5.001190  -0.089525 -79.455000   0.013469   0.000916 -59.591200   0.004330   0.003152 -89.003900  -0.000091   0.003680 -97.725500   0.011907   0.003644 -73.294000  -0.000529   0.011747 -88.994400  -4.987860   0.084391 -90.025500   0.012103   0.002799 -67.519000   0.001975   0.010864 -88.981600  -9.999210   0.177565 -110.000000  -0.006782   0.002787 -80.000000   0.001196  -0.000817   6.456110  -2.853620  11.440200  34.224200   6.262510  64.738600 -15.432300 -15.485600  86.030300  47.132400   7.698200  -3.846820 -49.289900  48.732300  95.870800 -17.151200   0.008938  -0.013904 -13.575600   0.000606  -0.003688  42.626800  11.466200  12.218200  35.884500   0.001588  -0.001044  25.905700  -0.000178  -0.000378  25.706900   5.695860  11.680900  26.292000   0.000407  -0.000062  17.510500  -0.001414  -0.009967  25.634000   4.938630  10.182600  26.072100  -0.004361  -0.002666  17.364000  -0.003119   0.000473  35.624900   0.083043   0.129558  53.437800  -0.002048   0.001287  35.589600  -0.000960   0.002175   1.000670  10.754700   2.789670   0.460762   2.310710  13.369900  -6.117770  -5.524290   4.165100  -0.000000   0.000000   0.000000   2.012250  10.700200  -9.459770   0.478717   1.557720  -8.382310 -11.312900  -0.068429   0.727709  -0.000000   0.000000   0.000000
 -0.892325  90.003400   3.199330  -0.845841  -9.083870  -3.188090  -1.132510   5.742050   0.360627  -2.317660  11.475700   0.841342  -1.920300   0.033995   0.000866  -3.136870   0.068788  12.869600  -9.428360  -4.809870   0.923704 -52.527200  34.769400 -47.375100  11.826400 -12.848100 -89.956400  35.665000   7.051880 -22.151900  80.240800  51.220100 -111.751000 -18.731300  -0.002904   0.001180  -4.365670  -0.002590  -0.001506 -88.996000   5.001210  -0.089544 -79.412100   0.013465   0.000959 -59.559000   0.004274   0.003208 -89.004000  -0.000096   0.003683 -97.719300   0.011950   0.003687 -73.289300  -0.000562   0.011734 -88.994400  -4.987850   0.084382 -90.118200   0.012150   0.002840 -67.588600   0.001959   0.010867 -88.981500  -9.999200   0.177579 -110.000000  -0.006740   0.002765 -80.000000   0.001248  -0.000747   6.455320  -2.824330  11.405700  33.954100   6.226510  64.683800 -15.235800 -15.238700  86.037600  47.036200   7.378780  -3.570720 -49.213800  48.676400  95.767700 -16.375300   0.009735  -0.012453 -13.187600   0.000801  -0.003936  43.517900  11.482000  11.851700  36.584100   0.001513  -0.001026  26.559800  -0.000219  -0.000184  26.466100   5.769550  11.425800  27.045100   0.000351  -0.000100  18.012100  -0.001421  -0.009986  26.286900   4.963820   9.940590  26.672600  -0.004421  -0.002825  17.763900  -0.003207   0.000421  36.208700  -0.053411  -0.070069  54.313400  -0.002302   0.001179  36.172800  -0.001047   0.002134   1.001560  10.747800   2.784770   0.459666   2.271800  13.347100  -6.118870  -5.522850   4.183560  -0.000000   0.000000  -0.000000   2.006660  10.680600  -9.479270   0.495004   1.535010  -8.359900 -11.314300  -0.066521   0.720376  -0.000000   0.000000  -0.000000
 -0.886487  90.003700   3.220180  -0.842433  -9.036050  -3.174760  -1.133880   5.709640   0.380218  -2.323460  11.410400   0.881172  -1.872750  -0.086181  -0.002890  -3.076410  -0.174263  12.890700  -9.391060  -4.786520   0.853672 -52.247100  34.748900 -47.580100  11.819900 -13.083000 -89.958300  35.590500   7.260670 -22.374000  79.851000  51.368000 -111.746000 -19.085900  -0.002909   0.001164  -4.542940  -0.002592  -0.001498 -88.996000   5.001220  -0.089562 -79.392200   0.013461   0.001003 -59.544100   0.004220   0.003265 -89.004000  -0.000101   0.003686 -97.710700   0.011993   0.003731 -73.283000  -0.000594   0.011719 -88.994400  -4.987850   0.084377 -90.161800   0.012199   0.002881 -67.621300   0.001943   0.010868 -88.981500  -9.999180   0.177594 -110.000000  -0.006698   0.002743 -80.000000   0.001301  -0.000678   6.451740  -2.793630  11.353800  33.472400   6.167240  64.636500 -15.020500 -15.113700  86.042800  46.885400   7.241580  -3.451560 -48.900700  48.440400  95.346500 -14.737600   0.009849  -0.009550 -12.368800   0.000907  -0.004182  43.788300  11.488600  11.740700  36.796600   0.001438  -0.001008  26.757800  -0.000262  -0.000000  26.760400   5.799730  11.327400  27.336800   0.000294  -0.000142  18.206300  -0.001429  -0.010002  26.653600   4.978430   9.806150  27.004500  -0.004481  -0.002985  17.985000  -0.003296   0.000366  36.463800  -0.112994  -0.156858  54.696100  -0.002553   0.001070  36.427600  -0.001138   0.002094   1.001530  10.732400   2.775440   0.458641   2.234750  13.327900  -6.119520  -5.521400   4.203200   0.000000   0.000000   0.000000   1.997190  10.657100  -9.504550   0.510691   1.510780  -8.338770 -11.315500  -0.064612   0.714073   0.000000   0.000000   0.000000
 -0.881548  90.003800   3.238130  -0.832723  -8.990220  -3.158150  -1.144150   5.683650   0.397013  -2.346010  11.358000   0.915813  -1.798110  -0.227294  -0.007064  -2.960130  -0.459507  12.914200  -9.351880  -4.766760   0.805785 -52.086500  34.684300 -47.629100  11.881300 -13.155400 -89.899900  35.398100   7.219880 -22.480900  79.555500  51.484800 -111.737000 -19.348700  -0.002897   0.001157  -4.674340  -0.002584  -0.001500 -88.996000   5.001240  -0.089576 -79.398600   0.013455   0.001052 -59.548900   0.004165   0.003328 -89.004100  -0.000099   0.003688 -97.680000   0.012030   0.003770 -73.260000  -0.000624   0.011705 -88.994300  -4.987840   0.084373 -90.070100   0.012251   0.002923 -67.552500   0.001919   0.010870 -88.981500  -9.999160   0.177608 -110.000000  -0.006655   0.002727 -80.000000   0.001341  -0.000610   6.450180  -2.769470  11.317700  32.967100   6.149180  64.604100 -14.885700 -15.217500  86.041400  46.595400   7.394010  -3.556460 -48.183400  47.871100  94.386000 -12.437100   0.004747  -0.005380 -11.218500   0.000906  -0.004431  43.070800  11.490800  12.032500  36.234000   0.001362  -0.000989  26.223300  -0.000306   0.000136  26.152300   5.749710  11.532200  26.742700   0.000239  -0.000185  17.810700  -0.001437  -0.010020  26.614600   4.975790   9.814880  27.007300  -0.004538  -0.003142  17.986800  -0.003386   0.000309  36.369200  -0.090197  -0.124272  54.553900  -0.002805   0.000957  36.332900  -0.001228   0.002057   0.992532  10.703700   2.762590   0.458087   2.214290  13.307000  -6.118380  -5.521540   4.224150  -0.000000   0.000000   0.000000   1.983510  10.634000  -9.513960   0.523622   1.490410  -8.335460 -11.316200  -0.065180   0.705558   0.000000   0.000000  -0.000000
 -0.877228  90.003900   3.253110  -0.821155  -8.949180  -3.141800  -1.158650   5.670460   0.405995  -2.375440  11.331300   0.934693  -1.711010  -0.383396  -0.011412  -2.811290  -0.775230  12.948000  -9.317830  -4.753520   0.782471 -52.049500  34.570500 -47.567300  11.942700 -13.165300 -89.841500  35.194600   7.138310 -22.529500  79.436700  51.580200 -111.760000 -19.566100  -0.002885   0.001148  -4.783060  -0.002576  -0.001501 -88.996000   5.001260  -0.089591 -79.405000   0.013448   0.001103 -59.553700   0.004110   0.003391 -89.004100  -0.000095   0.003688 -97.618000   0.012067   0.003808 -73.213400  -0.000655   0.011690 -88.994300  -4.987830   0.084372 -89.916200   0.012304   0.002963 -67.437100   0.001896   0.010872 -88.981400  -9.999140   0.177622 -110.000000  -0.006611   0.002713 -80.000000   0.001379  -0.000543   6.450590  -2.749170  11.299200  32.555700   6.127210  64.579800 -14.707700 -15.354000  86.055200  46.418200   7.648200  -3.795090 -47.457000  47.259000  93.411000 -10.257300  -0.000517  -0.002287 -10.128600   0.000900  -0.004676  42.353600  11.490600  12.324200  35.671400   0.001285  -0.000971  25.688800  -0.000352   0.000262  25.544500   5.699680  11.737000  26.148600   0.000183  -0.000229  17.415000  -0.001445  -0.010036  26.576300   4.969150   9.823550  27.010100  -0.004594  -0.003299  17.988700  -0.003477   0.000251  36.274600  -0.067400  -0.091685  54.411600  -0.003056   0.000845  36.238100  -0.001321   0.002018   0.984982  10.672400   2.754090   0.455409   2.206930  13.283700  -6.116630  -5.523440   4.244140   0.000000   0.000000   0.000000   1.973200  10.613000  -9.516060   0.533704   1.473320  -8.334930 -11.316900  -0.065747   0.697456   0.000000   0.000000  -0.000000
